<?xml version="1.0" encoding="utf-8"?>
<!-- Generator: Adobe Illustrator 16.0.0, SVG Export Plug-In . SVG Version: 6.00 Build 0)  -->
<!DOCTYPE svg PUBLIC "-//W3C//DTD SVG 1.1//EN" "http://www.w3.org/Graphics/SVG/1.1/DTD/svg11.dtd">
<svg version="1.1" id="Layer_1" xmlns="http://www.w3.org/2000/svg" xmlns:xlink="http://www.w3.org/1999/xlink" x="0px" y="0px"
	 width="64px" height="64px" viewBox="0 0 64 64" enable-background="new 0 0 64 64" xml:space="preserve">
<g id="Rectangle_15">
	<g>
		<rect x="53" y="11" fill="#FFFFFF" width="10" height="4"/>
	</g>
</g>
<g id="Rounded_Rectangle_20">
	<g>
		<rect x="33" y="1" fill="#F37F80" width="14" height="62"/>
	</g>
</g>
<g id="Ellipse_22">
	<g>
		<path fill="#F9C5DA" d="M58,1c-2.762,0-5,2.238-5,5v5c5.625,0,2.238,0,5,0h0.427c-0.01,0,0.081,0,0.367,0H63V6
			C63,3.238,60.762,1,58,1z"/>
	</g>
</g>
<g id="Ellipse_23">
	<g>
		<polygon fill="#F2CAA8" points="53,50 58,62 63,50 		"/>
	</g>
</g>
<g id="Rectangle_16_1_">
	<g>
		<path fill="#7AA4D7" d="M53,15v35c0,0,2.438-0.562,5,2c2.38-2.38,5-2,5-2V15H53z"/>
	</g>
</g>
<g id="Rounded_Rectangle_18_1_">
	<g>
		<path fill="#2B3139" d="M37,50c0.553,0,1-0.447,1-1V5c0-0.553-0.447-1-1-1s-1,0.447-1,1v44C36,49.553,36.447,50,37,50z M46,0H34
			c-1.104,0-2,0.896-2,2v60c0,1.104,0.896,2,2,2h12c1.104,0,2-0.896,2-2V2C48,0.896,47.104,0,46,0z M46,4h-1c-0.553,0-1,0.447-1,1
			s0.447,1,1,1h1v2h-1c-0.553,0-1,0.447-1,1s0.447,1,1,1h1v2h-1c-0.553,0-1,0.447-1,1s0.447,1,1,1h1v2h-1c-0.553,0-1,0.447-1,1
			s0.447,1,1,1h1v2h-1c-0.553,0-1,0.447-1,1s0.447,1,1,1h1v2h-1c-0.553,0-1,0.447-1,1s0.447,1,1,1h1v2h-1c-0.553,0-1,0.447-1,1
			s0.447,1,1,1h1v2h-1c-0.553,0-1,0.447-1,1s0.447,1,1,1h1v2h-1c-0.553,0-1,0.447-1,1s0.447,1,1,1h1v2h-1c-0.553,0-1,0.447-1,1
			s0.447,1,1,1h1v2h-1c-0.553,0-1,0.447-1,1s0.447,1,1,1h1v2h-1c-0.553,0-1,0.447-1,1s0.447,1,1,1h1v2h-1c-0.553,0-1,0.447-1,1
			s0.447,1,1,1h1v2h-1c-0.553,0-1,0.447-1,1s0.447,1,1,1h1v4H34V2h12V4z M58,0c-3.313,0-6,2.687-6,6v46l6,12l6-12V6
			C64,2.687,61.313,0,58,0z M59.186,57h-2.371l-2.804-5.914C55.525,51.31,57.104,52.001,58,53c0.896-0.999,2.475-1.69,3.989-1.914
			L59.186,57z M62,49.044c-1.502,0.12-2.876,0.533-4,1.436c-1.124-0.902-2.498-1.315-4-1.436V16h8V49.044z M62,14h-8v-2h8V14z
			 M62,10h-8V6c0-2.209,1.791-4,4-4s4,1.791,4,4V10z M58,47c0.553,0,1-0.447,1-1V19c0-0.553-0.447-1-1-1s-1,0.447-1,1v27
			C57,46.553,57.447,47,58,47z"/>
	</g>
</g>
<g id="Rectangle_13">
	<g>
		<path fill="#BDE0F7" d="M1,1v62h46L1,1z M11,31l16,22H11V31z"/>
	</g>
</g>
<g id="Rounded_Rectangle_17">
	<g>
		<path fill="#2B3139" d="M47.988,62.942c-0.004-0.066-0.021-0.129-0.039-0.194s-0.032-0.129-0.062-0.188
			c-0.009-0.019-0.008-0.039-0.019-0.058L1.904,0.584C1.835,0.437,1.728,0.318,1.6,0.221C1.574,0.199,1.547,0.185,1.52,0.166
			C1.453,0.125,1.387,0.088,1.312,0.063c-0.078-0.028-0.156-0.04-0.238-0.048C1.048,0.013,1.026,0,1,0
			C0.987,0,0.977,0.007,0.965,0.007c-0.102,0.001-0.2,0.025-0.299,0.06C0.64,0.077,0.612,0.083,0.587,0.095
			C0.556,0.108,0.522,0.109,0.492,0.127C0.437,0.16,0.4,0.21,0.354,0.252C0.324,0.277,0.295,0.299,0.269,0.328
			C0.213,0.391,0.17,0.458,0.131,0.532C0.107,0.576,0.084,0.618,0.067,0.666C0.043,0.737,0.032,0.808,0.023,0.882
			C0.019,0.923,0,0.958,0,1v62c0,0.553,0.447,1,1,1h46c0.013,0,0.023-0.007,0.035-0.007c0.102-0.002,0.2-0.025,0.299-0.061
			c0.027-0.01,0.054-0.016,0.079-0.027c0.031-0.014,0.064-0.015,0.095-0.032c0.056-0.033,0.092-0.083,0.139-0.125
			c0.029-0.025,0.059-0.047,0.084-0.075c0.057-0.063,0.1-0.131,0.138-0.205c0.024-0.044,0.048-0.086,0.064-0.134
			c0.024-0.07,0.035-0.142,0.044-0.217C47.981,63.077,48,63.042,48,63C48,62.979,47.989,62.963,47.988,62.942z M2,62v-2h1
			c0.553,0,1-0.447,1-1s-0.447-1-1-1H2v-2h1c0.553,0,1-0.447,1-1s-0.447-1-1-1H2v-2h1c0.553,0,1-0.447,1-1s-0.447-1-1-1H2v-2h1
			c0.553,0,1-0.447,1-1s-0.447-1-1-1H2v-2h1c0.553,0,1-0.447,1-1s-0.447-1-1-1H2v-2h1c0.553,0,1-0.447,1-1s-0.447-1-1-1H2v-2h1
			c0.553,0,1-0.447,1-1s-0.447-1-1-1H2v-2h1c0.553,0,1-0.447,1-1s-0.447-1-1-1H2v-2h1c0.553,0,1-0.447,1-1s-0.447-1-1-1H2v-2h1
			c0.553,0,1-0.447,1-1s-0.447-1-1-1H2v-2h1c0.553,0,1-0.447,1-1s-0.447-1-1-1H2v-2h1c0.553,0,1-0.447,1-1s-0.447-1-1-1H2v-2h1
			c0.553,0,1-0.447,1-1s-0.447-1-1-1H2V4.015L45.045,62H2z M11,54h16c0.553,0,1-0.447,1-1c0-0.139-0.028-0.271-0.08-0.391
			c-0.049-0.124-0.123-0.24-0.223-0.341L11.699,30.271c-0.395-0.395-1.033-0.395-1.428,0c-0.23,0.23-0.31,0.54-0.271,0.839V53
			C10,53.553,10.447,54,11,54z M12,34.076L25.034,52H12V34.076z"/>
	</g>
</g>
</svg>
