<?xml version="1.0" encoding="utf-8"?>
<!-- Generator: Adobe Illustrator 16.0.0, SVG Export Plug-In . SVG Version: 6.00 Build 0)  -->
<!DOCTYPE svg PUBLIC "-//W3C//DTD SVG 1.1//EN" "http://www.w3.org/Graphics/SVG/1.1/DTD/svg11.dtd">
<svg version="1.1" id="Layer_1" xmlns="http://www.w3.org/2000/svg" xmlns:xlink="http://www.w3.org/1999/xlink" x="0px" y="0px"
	 width="64px" height="64px" viewBox="0 0 64 64" enable-background="new 0 0 64 64" xml:space="preserve">
<g id="Rounded_Rectangle_55">
	<g>
		<path fill="#B3DAF4" d="M32,49c-3.313,0-1.562,0-6,0v8c0,3.313,2.687,6,6,6s6-2.687,6-6v-8C34.625,49,35.313,49,32,49z"/>
	</g>
</g>
<g id="Ellipse_53">
	<g>
		<path fill="#FFECBA" d="M47,27c0-8.284-6.716-15-15-15s-15,6.716-15,15c0,4.915,2.375,9.264,6.027,12H23c0,0,1.319,1.731,2,4
			c0.809,2.694,1,6,1,6h12c0,0,0.201-3.337,1-6c0.693-2.312,2-4,2-4h-0.027C44.625,36.264,47,31.915,47,27z"/>
	</g>
</g>
<g id="Rectangle_35">
	<g>
		<path fill="#2B3139" d="M43.219,38.4C46.168,35.498,48,31.465,48,27c0-8.837-7.163-16-16-16s-16,7.163-16,16
			c0,4.47,1.837,8.508,4.793,11.41C21.925,39.758,23.089,41.023,24,43c1.081,2.346,0.953,3.676,0.953,5H24c-0.553,0-1,0.447-1,1
			s0.447,1,1,1h1v7c0,3.866,3.134,7,7,7s7-3.134,7-7v-7h1c0.552,0,1-0.447,1-1s-0.448-1-1-1h-1c0-1.057,0.01-3.099,1-5
			C41.039,41.004,42.15,39.562,43.219,38.4z M32,62c-2.419,0-4.436-1.718-4.899-4h9.799C36.436,60.282,34.419,62,32,62z M37,56H27
			v-2h10V56z M37,52H27v-2c3.281,0,2.238,0,5,0s1.656,0,5,0V52z M31,48V36h2v12H31z M38.062,42.438C36.918,45.089,37,48,37,48h-2V36
			h1c1.657,0,3-1.343,3-3s-1.343-3-3-3s-3,1.343-3,3v1h-2v-1c0-1.657-1.343-3-3-3s-3,1.343-3,3s1.343,3,3,3h1v12h-2
			c0,0,0.12-3.036-1-5.5c-0.981-2.159-3.006-4.588-4.055-5.771c-0.213-0.221-0.42-0.447-0.619-0.682
			C21.298,36.018,21.281,36,21.281,36h0.002C19.236,33.565,18,30.429,18,27c0-7.732,6.268-14,14-14c7.731,0,14,6.268,14,14
			c0,3.429-1.236,6.565-3.283,9h0.002c0,0-0.019,0.02-0.049,0.052c-0.188,0.222-0.384,0.435-0.585,0.644
			C41.036,37.877,38.961,40.356,38.062,42.438z M35,33c0-0.553,0.447-1,1-1c0.552,0,1,0.447,1,1c0,0.552-0.448,1-1,1
			C35.447,34,35,33.552,35,33z M29,33c0,0.552-0.448,1-1,1c-0.553,0-1-0.448-1-1c0-0.553,0.447-1,1-1C28.552,32,29,32.447,29,33z
			 M32,15c-6.628,0-12,5.372-12,12c0,0.553,0.447,1,1,1s1-0.447,1-1c0-5.522,4.478-10,10-10c0.553,0,1-0.448,1-1
			C33,15.447,32.553,15,32,15z"/>
	</g>
</g>
<g id="Rounded_Rectangle_17">
	<g>
		<path fill="#2B3139" d="M32,0c-0.553,0-1,0.447-1,1v4c0,0.552,0.447,1,1,1s1-0.448,1-1V1C33,0.447,32.553,0,32,0z M52.704,8.296
			c-0.406-0.405-1.063-0.405-1.47,0l-2.938,2.938c-0.405,0.406-0.405,1.063,0,1.47c0.406,0.405,1.063,0.405,1.47,0l2.938-2.938
			C53.109,9.359,53.109,8.702,52.704,8.296z M12.785,8.294c-0.403-0.403-1.057-0.403-1.46,0s-0.403,1.058,0,1.46l2.92,2.921
			c0.403,0.403,1.058,0.403,1.461,0s0.403-1.057,0-1.46L12.785,8.294z M58,26h-4c-0.553,0-1,0.447-1,1c0,0.552,0.447,1,1,1h4
			c0.553,0,1-0.448,1-1C59,26.447,58.553,26,58,26z M10,26H6c-0.553,0-1,0.447-1,1c0,0.552,0.447,1,1,1h4c0.553,0,1-0.448,1-1
			C11,26.447,10.553,26,10,26z"/>
	</g>
</g>
</svg>
