<?xml version="1.0" encoding="utf-8"?>
<!-- Generator: Adobe Illustrator 16.0.0, SVG Export Plug-In . SVG Version: 6.00 Build 0)  -->
<!DOCTYPE svg PUBLIC "-//W3C//DTD SVG 1.1//EN" "http://www.w3.org/Graphics/SVG/1.1/DTD/svg11.dtd">
<svg version="1.1" id="Layer_1" xmlns="http://www.w3.org/2000/svg" xmlns:xlink="http://www.w3.org/1999/xlink" x="0px" y="0px"
	 width="64px" height="64px" viewBox="0 0 64 64" enable-background="new 0 0 64 64" xml:space="preserve">
<g id="Rectangle_79">
	<g>
		<path fill="#DAEEFB" d="M35,25.688V13h2V9H23v4h2v12.688C16.937,27.885,11,35.24,11,44h38C49,35.24,43.063,27.885,35,25.688z"/>
	</g>
</g>
<g id="Rectangle_80">
	<g>
		<path fill="#DCACCF" d="M35,44c0-2.209-1.791-4-4-4s-4,1.791-4,4H11c0,10.493,8.507,19,19,19s19-8.507,19-19H35z"/>
	</g>
</g>
<g id="Ellipse_49">
	<g>
		<path fill="#BC7CB5" d="M21,48c-1.104,0-2,0.896-2,2s0.896,2,2,2s2-0.896,2-2S22.104,48,21,48z M38,52c-1.104,0-2,0.896-2,2
			s0.896,2,2,2s2-0.896,2-2S39.104,52,38,52z"/>
	</g>
</g>
<g id="Ellipse_50">
	<g>
		<path fill="#DCACCF" d="M50,1c-1.657,0-3,1.343-3,3s1.343,3,3,3s3-1.343,3-3S51.657,1,50,1z M34,1c-1.104,0-2,0.896-2,2
			s0.896,2,2,2s2-0.896,2-2S35.104,1,34,1z"/>
	</g>
</g>
<g id="Ellipse_48">
	<g>
		<path fill="#2B3139" d="M42,10c1.104,0,2-0.896,2-2s-0.896-2-2-2s-2,0.896-2,2S40.896,10,42,10z M34,6c1.657,0,3-1.343,3-3
			s-1.343-3-3-3s-3,1.343-3,3S32.343,6,34,6z M34,2c0.553,0,1,0.447,1,1s-0.447,1-1,1s-1-0.447-1-1S33.447,2,34,2z M50,0
			c-2.209,0-4,1.791-4,4s1.791,4,4,4s4-1.791,4-4S52.209,0,50,0z M50,6c-1.104,0-2-0.896-2-2s0.896-2,2-2s2,0.896,2,2S51.104,6,50,6
			z M21,47c-1.657,0-3,1.343-3,3s1.343,3,3,3s3-1.343,3-3S22.657,47,21,47z M21,51c-0.553,0-1-0.447-1-1s0.447-1,1-1s1,0.447,1,1
			S21.553,51,21,51z M27,55c-1.104,0-2,0.896-2,2s0.896,2,2,2s2-0.896,2-2S28.104,55,27,55z M35,54c0,1.657,1.343,3,3,3s3-1.343,3-3
			s-1.343-3-3-3S35,52.343,35,54z M38,53c0.553,0,1,0.447,1,1s-0.447,1-1,1s-1-0.447-1-1S37.447,53,38,53z M36,24.918V14
			c1.104,0,2-0.896,2-2v-2c0-1.104-0.896-2-2-2H24c-1.104,0-2,0.896-2,2v2c0,1.104,0.896,2,2,2v10.918
			C15.887,27.467,10,35.045,10,44c0,11.046,8.954,20,20,20s20-8.954,20-20C50,35.045,44.113,27.467,36,24.918z M24,10h12v2H24V10z
			 M47.717,47H39c-0.553,0-1,0.447-1,1s0.447,1,1,1h8.254C45.088,56.504,38.201,62,30,62c-9.604,0-17.428-7.526-17.949-17h16.133
			C28.072,44.686,28,44.353,28,44c0-1.657,1.343-3,3-3s3,1.343,3,3c0,0.353-0.072,0.686-0.184,1c-0.413,1.162-1.512,2-2.816,2
			c-0.553,0-1,0.447-1,1s0.447,1,1,1c2.419,0,4.437-1.718,4.899-4h12.05C47.912,45.679,47.827,46.344,47.717,47z M35.899,43
			c-0.463-2.282-2.48-4-4.899-4s-4.437,1.718-4.899,4H16.05c0.515-7.264,6.555-13,13.95-13c0.553,0,1-0.447,1-1s-0.447-1-1-1
			c-8.5,0-15.431,6.631-15.95,15h-2.007c0.441-8.02,6.118-14.638,13.681-16.481c0.073-0.019,0.283,0.023,0.283-0.053
			C26.007,25.797,26,26.319,26,26V14h8v10.401c0,0.48,0,0.571,0,0.585c0,0,0,0.002,0,0.003c0,0.002,0,0.004,0,0.011
			c0,0.44,0,0.567,0,0.6c0,0,0,0.008,0,0.01c0,0.015,0,0.087,0,0.391c0-1.425,0.003-1.25,0.003,0.454
			c0,0.073,0.144,0.033,0.215,0.05C41.81,28.327,47.515,34.96,47.957,43H35.899z"/>
	</g>
</g>
</svg>
