<?xml version="1.0" encoding="utf-8"?>
<!-- Generator: Adobe Illustrator 16.0.0, SVG Export Plug-In . SVG Version: 6.00 Build 0)  -->
<!DOCTYPE svg PUBLIC "-//W3C//DTD SVG 1.1//EN" "http://www.w3.org/Graphics/SVG/1.1/DTD/svg11.dtd">
<svg version="1.1" id="Layer_1" xmlns="http://www.w3.org/2000/svg" xmlns:xlink="http://www.w3.org/1999/xlink" x="0px" y="0px"
	 width="64px" height="64px" viewBox="0 0 64 64" enable-background="new 0 0 64 64" xml:space="preserve">
<g id="Ellipse_45">
	<g>
		<circle fill="#CFEDFA" cx="24" cy="24" r="21"/>
	</g>
</g>
<g id="Ellipse_22">
	<g>
		<path fill="#ACC4E1" d="M24,1C11.298,1,1,11.298,1,24s10.298,23,23,23s23-10.298,23-23S36.702,1,24,1z M24,43
			C13.507,43,5,34.493,5,24S13.507,5,24,5s19,8.507,19,19S34.493,43,24,43z M41,48l3,3l7-7l-3-3L41,48z M57.5,52
			c-3.037,0-5.5,2.462-5.5,5.5c0,3.037,2.463,5.5,5.5,5.5s5.5-2.463,5.5-5.5C63,54.462,60.537,52,57.5,52z"/>
	</g>
</g>
<g id="Ellipse_24">
	<g>
		
			<rect x="40.379" y="39.672" transform="matrix(0.7071 -0.7071 0.7071 0.7071 -17.6041 42.5)" fill="#BBD2EE" width="4.243" height="5.657"/>
	</g>
</g>
<g id="Ellipse_23">
	<g>
		<path fill="#BC9E85" d="M50.906,43.097l-7.81,7.81l9.685,9.685l0.033-0.034c2.937-2.937,2.644-2.643,7.743-7.742l0.033-0.033
			L50.906,43.097z"/>
	</g>
</g>
<g id="Ellipse_21">
	<g>
		<path fill="#2B3139" d="M62.801,54.435c-0.037-0.059-0.063-0.123-0.115-0.175l-0.16-0.16c-0.193-0.224-0.401-0.432-0.625-0.625
			l-1.186-1.186c-0.001-0.001-0.001-0.002-0.002-0.003s-0.002-0.001-0.003-0.002l-8.993-8.993c-0.002-0.001-0.002-0.003-0.004-0.005
			s-0.004-0.002-0.005-0.003l-2.991-2.991c-0.002-0.002-0.002-0.004-0.004-0.006c-0.097-0.097-0.209-0.17-0.329-0.218
			c-0.366-0.153-0.803-0.083-1.101,0.215c-0.025,0.025-0.034,0.058-0.057,0.085l-1.25,1.251l-2.971-2.972
			C46.135,34.594,48,29.517,48,24C48,10.745,37.255,0,24,0S0,10.745,0,24s10.745,24,24,24c5.517,0,10.594-1.867,14.646-4.996
			l2.973,2.973l-1.249,1.249c-0.027,0.022-0.062,0.032-0.087,0.058c-0.394,0.394-0.394,1.031,0,1.425l0.002,0.002
			c0.001,0.001,0.001,0.002,0.002,0.003s0.002,0.001,0.003,0.002l2.995,2.996c0.001,0,0.001,0.001,0.002,0.002
			s0.002,0.001,0.002,0.002l8.995,8.995c0.001,0.001,0.001,0.002,0.002,0.003s0.002,0.001,0.003,0.002l1.186,1.186
			c0.193,0.224,0.401,0.432,0.625,0.625l0.16,0.16c0.052,0.052,0.116,0.078,0.175,0.115C55.434,63.545,56.659,64,58,64
			c3.313,0,6-2.687,6-6C64,56.659,63.545,55.434,62.801,54.435z M37.364,41.463c-0.123,0.003-0.182,0.027-0.134,0.105
			C33.548,44.348,28.969,46,24,46C11.85,46,2,36.15,2,24S11.85,2,24,2s22,9.85,22,22c0,4.968-1.648,9.551-4.426,13.233
			c-0.085-0.055-0.109,0.009-0.111,0.141C40.283,38.912,38.901,40.284,37.364,41.463z M40.128,41.77
			c0.573-0.521,1.123-1.067,1.644-1.641l2.848,2.848l-1.643,1.643L40.128,41.77z M42.415,47.989l1.225-1.225
			c0.023-0.02,0.053-0.027,0.075-0.05s0.03-0.052,0.051-0.076l2.873-2.873c0.024-0.021,0.054-0.028,0.076-0.051
			s0.03-0.052,0.05-0.075l1.225-1.225c0.396,0.396,0.953,0.954,1.594,1.597l-5.572,5.573C43.365,48.939,42.813,48.388,42.415,47.989
			z M53.01,58.584c-1.94-1.94-5.104-5.104-7.595-7.595l5.572-5.572c2.473,2.476,5.62,5.626,7.594,7.597L53.01,58.584z M58,62
			c-0.886,0-1.696-0.297-2.358-0.784l-0.857-0.857c0.009,0.009-0.132-0.132-0.369-0.369l5.572-5.572
			c0.159,0.157,0.291,0.289,0.371,0.367l0.857,0.857C61.703,56.304,62,57.114,62,58C62,60.209,60.209,62,58,62z M24,4
			C12.954,4,4,12.954,4,24s8.954,20,20,20s20-8.954,20-20S35.046,4,24,4z M24,42c-9.941,0-18-8.059-18-18S14.059,6,24,6
			s18,8.059,18,18S33.941,42,24,42z M24,8c-0.553,0-1,0.447-1,1s0.447,1,1,1c7.732,0,14,6.268,14,14c0,0.553,0.447,1,1,1
			s1-0.447,1-1C40,15.163,32.837,8,24,8z"/>
	</g>
</g>
</svg>
