<?xml version="1.0" encoding="utf-8"?>
<!-- Generator: Adobe Illustrator 16.0.0, SVG Export Plug-In . SVG Version: 6.00 Build 0)  -->
<!DOCTYPE svg PUBLIC "-//W3C//DTD SVG 1.1//EN" "http://www.w3.org/Graphics/SVG/1.1/DTD/svg11.dtd">
<svg version="1.1" id="Layer_1" xmlns="http://www.w3.org/2000/svg" xmlns:xlink="http://www.w3.org/1999/xlink" x="0px" y="0px"
	 width="64px" height="64px" viewBox="0 0 64 64" enable-background="new 0 0 64 64" xml:space="preserve">
<g id="Rectangle_36_copy_3">
	<g>
		<rect x="43" y="32" fill="#91C9ED" width="10" height="22"/>
	</g>
</g>
<g id="Rectangle_36_copy_4">
	<g>
		<rect x="27" y="22" fill="#F37D7E" width="10" height="32"/>
	</g>
</g>
<g id="Rectangle_36_copy_5">
	<g>
		<rect x="11" y="12" fill="#91C9ED" width="10" height="42"/>
	</g>
</g>
<g id="Rounded_Rectangle_10_copy">
	<g>
		<path fill="#2B3139" d="M63,53h-9V33c0-1.104-0.896-2-2-2h-8c-1.104,0-2,0.896-2,2v20h-4V23c0-1.104-0.896-2-2-2h-8
			c-1.104,0-2,0.896-2,2v30h-4V13c0-1.104-0.896-2-2-2h-8c-1.104,0-2,0.896-2,2v40H1c-0.553,0-1,0.447-1,1c0,0.552,0.447,1,1,1h62
			c0.553,0,1-0.448,1-1C64,53.447,63.553,53,63,53z M16,53V16c0-0.553-0.447-1-1-1s-1,0.447-1,1v37h-2V13h8v40H16z M32,53V26
			c0-0.553-0.447-1-1-1s-1,0.447-1,1v27h-2V23h8v30H32z M48,53V36c0-0.553-0.447-1-1-1s-1,0.447-1,1v17h-2V33h8v20H48z"/>
	</g>
</g>
<g id="Rounded_Rectangle_12">
	<g>
		<path fill="#2B3139" d="M52,15c-0.553,0-1,0.447-1,1v3.599L40.717,9.314c-0.396-0.396-1.038-0.396-1.434,0
			c-0.396,0.396-0.396,1.038,0,1.434L49.535,21H46c-0.553,0-1,0.447-1,1c0,0.552,0.447,1,1,1h5.898
			c0.02,0.001,0.037-0.01,0.057-0.009C51.971,22.991,51.984,23,52,23c0.132,0,0.256-0.028,0.371-0.075
			c0.034-0.014,0.061-0.036,0.093-0.054c0.071-0.038,0.138-0.08,0.198-0.134c0.032-0.029,0.06-0.061,0.088-0.094
			c0.051-0.059,0.093-0.122,0.129-0.192c0.018-0.033,0.037-0.064,0.051-0.101C52.971,22.24,53,22.125,53,22v-6
			C53,15.447,52.553,15,52,15z"/>
	</g>
</g>
</svg>
