<?xml version="1.0" encoding="utf-8"?>
<!-- Generator: Adobe Illustrator 16.0.0, SVG Export Plug-In . SVG Version: 6.00 Build 0)  -->
<!DOCTYPE svg PUBLIC "-//W3C//DTD SVG 1.1//EN" "http://www.w3.org/Graphics/SVG/1.1/DTD/svg11.dtd">
<svg version="1.1" id="Layer_1" xmlns="http://www.w3.org/2000/svg" xmlns:xlink="http://www.w3.org/1999/xlink" x="0px" y="0px"
	 width="64px" height="64px" viewBox="0 0 64 64" enable-background="new 0 0 64 64" xml:space="preserve">
<g id="Rectangle_38">
	<g>
		<rect x="1" y="1" fill="#83AEDD" width="62" height="46"/>
	</g>
</g>
<g id="Rectangle_39">
	<g>
		<rect x="5" y="5" fill="#FFFFFF" width="54" height="38"/>
	</g>
</g>
<g id="Rectangle_40">
	<g>
		<rect x="4" y="4" fill="#ECF3FB" width="56" height="40"/>
	</g>
</g>
<g id="Rounded_Rectangle_7">
	<g>
		<path fill="#2B3139" d="M62,0H2C0.896,0,0,0.896,0,2v44c0,1.104,0.896,2,2,2h29v6.643L23.643,62H22c-0.553,0-1,0.447-1,1
			s0.447,1,1,1h6c0.553,0,1-0.447,1-1s-0.447-1-1-1h-1.643L32,56.357L37.643,62H36c-0.553,0-1,0.447-1,1s0.447,1,1,1h6
			c0.553,0,1-0.447,1-1s-0.447-1-1-1h-1.643L33,54.643V48h29c1.104,0,2-0.896,2-2V2C64,0.896,63.104,0,62,0z M62,46H2V2h60V46z
			 M60,4H4v40h56V4z M58,42H6V6h52V42z"/>
	</g>
</g>
<g id="Rounded_Rectangle_8">
	<g>
		<path fill="#2B3139" d="M55,34H45c-0.553,0-1,0.447-1,1s0.447,1,1,1h10c0.553,0,1-0.447,1-1S55.553,34,55,34z M46.184,22
			c0.413,1.162,1.512,2,2.816,2c1.657,0,3-1.344,3-3c0-1.657-1.343-3-3-3c-1.305,0-2.403,0.837-2.816,2h-6.021l2.306-4.054
			C42.642,15.978,42.818,16,43,16c1.657,0,3-1.343,3-3s-1.343-3-3-3s-3,1.343-3,3c0,0.732,0.273,1.395,0.709,1.916L37.818,20h-3.002
			c-0.413-1.163-1.512-2-2.816-2c-1.657,0-3,1.343-3,3c0,0.462,0.113,0.895,0.3,1.286l-4.3,4.3l-7.3-7.3
			C17.887,18.895,18,18.462,18,18c0-1.657-1.343-3-3-3s-3,1.343-3,3s1.343,3,3,3c0.462,0,0.895-0.113,1.286-0.3l7.3,7.3l-5.3,5.3
			C17.895,33.113,17.462,33,17,33c-1.657,0-3,1.343-3,3s1.343,3,3,3s3-1.343,3-3c0-0.462-0.113-0.895-0.3-1.286l5.3-5.3l3.3,3.3
			C28.113,33.105,28,33.538,28,34c0,1.656,1.343,3,3,3s3-1.344,3-3c0-0.732-0.273-1.396-0.709-1.916L39.025,22H46.184z M49,20
			c0.553,0,1,0.447,1,1s-0.447,1-1,1s-1-0.447-1-1S48.447,20,49,20z M43,12c0.553,0,1,0.447,1,1s-0.447,1-1,1s-1-0.447-1-1
			S42.447,12,43,12z M15,19c-0.553,0-1-0.447-1-1s0.447-1,1-1s1,0.447,1,1S15.553,19,15,19z M17,37c-0.553,0-1-0.447-1-1
			s0.447-1,1-1s1,0.447,1,1S17.553,37,17,37z M32,20c0.553,0,1,0.447,1,1s-0.447,1-1,1s-1-0.447-1-1S31.447,20,32,20z M31,35
			c-0.553,0-1-0.447-1-1s0.447-1,1-1s1,0.447,1,1S31.553,35,31,35z M31.531,31.054C31.358,31.022,31.182,31,31,31
			c-0.462,0-0.895,0.113-1.286,0.3l-3.3-3.3l4.3-4.3C31.105,23.887,31.538,24,32,24c1.305,0,2.403-0.838,2.816-2h1.864
			L31.531,31.054z M49,38h-4c-0.553,0-1,0.447-1,1s0.447,1,1,1h4c0.553,0,1-0.447,1-1S49.553,38,49,38z"/>
	</g>
</g>
</svg>
