<?xml version="1.0" encoding="utf-8"?>
<!-- Generator: Adobe Illustrator 16.0.0, SVG Export Plug-In . SVG Version: 6.00 Build 0)  -->
<!DOCTYPE svg PUBLIC "-//W3C//DTD SVG 1.1//EN" "http://www.w3.org/Graphics/SVG/1.1/DTD/svg11.dtd">
<svg version="1.1" id="Layer_1" xmlns="http://www.w3.org/2000/svg" xmlns:xlink="http://www.w3.org/1999/xlink" x="0px" y="0px"
	 width="64px" height="64px" viewBox="0 0 64 64" enable-background="new 0 0 64 64" xml:space="preserve">
<g id="Ellipse_25_copy">
	<g>
		<circle fill="#FFFFFF" cx="28" cy="36" r="27"/>
	</g>
</g>
<g id="Ellipse_26">
	<g>
		<circle fill="#F26C6D" cx="28" cy="36" r="20"/>
	</g>
</g>
<g id="Ellipse_25">
	<g>
		<circle fill="#FFFFFF" cx="28" cy="36" r="13"/>
	</g>
</g>
<g id="Ellipse_24">
	<g>
		<circle fill="#F26C6D" cx="28" cy="36" r="6"/>
	</g>
</g>
<g id="Ellipse_23">
	<g>
		<path fill="#2B3139" d="M28,8C12.536,8,0,20.536,0,36s12.536,28,28,28s28-12.536,28-28S43.464,8,28,8z M28,62
			C13.641,62,2,50.359,2,36s11.641-26,26-26s26,11.641,26,26S42.359,62,28,62z M28,15C16.402,15,7,24.402,7,36s9.402,21,21,21
			s21-9.402,21-21S39.598,15,28,15z M28,55C17.507,55,9,46.493,9,36s8.507-19,19-19s19,8.507,19,19S38.493,55,28,55z M28,22
			c-7.732,0-14,6.268-14,14s6.268,14,14,14s14-6.268,14-14S35.732,22,28,22z M28,48c-6.627,0-12-5.373-12-12c0-6.628,5.373-12,12-12
			s12,5.372,12,12C40,42.627,34.627,48,28,48z M28,29c-3.866,0-7,3.134-7,7s3.134,7,7,7s7-3.134,7-7S31.866,29,28,29z M28,41
			c-2.762,0-5-2.238-5-5s2.238-5,5-5s5,2.238,5,5S30.762,41,28,41z"/>
	</g>
</g>
<g id="Rectangle_62">
	<g>
		<polygon fill="#C2CDDC" points="57,7 57,1 49,9 49,15 55,15 63,7 		"/>
	</g>
</g>
<g id="Rounded_Rectangle_49">
	<g>
		<path fill="#2B3139" d="M63.922,7.386c0.104-0.247,0.104-0.525,0-0.772c-0.028-0.069-0.079-0.123-0.121-0.183
			c-0.033-0.046-0.052-0.098-0.093-0.139s-0.093-0.06-0.139-0.092c-0.061-0.043-0.114-0.093-0.184-0.122
			C63.26,6.025,63.126,5.999,62.991,6h-3.575l2.292-2.292c0.392-0.391,0.392-1.025,0-1.416c-0.391-0.392-1.025-0.392-1.416,0
			L58,4.584V1.009c0.001-0.135-0.025-0.269-0.078-0.395c-0.028-0.069-0.079-0.123-0.121-0.183c-0.033-0.046-0.052-0.098-0.093-0.139
			s-0.093-0.06-0.139-0.092c-0.061-0.043-0.114-0.093-0.184-0.122c-0.247-0.103-0.524-0.103-0.771,0
			c-0.068,0.029-0.122,0.079-0.182,0.121c-0.046,0.033-0.099,0.052-0.141,0.094l-8,8c-0.042,0.042-0.062,0.095-0.095,0.142
			c-0.041,0.06-0.091,0.112-0.119,0.18C48.025,8.74,47.999,8.874,48,9.009v5.575L28.292,34.292c-0.392,0.391-0.392,1.025,0,1.416
			c0.391,0.392,1.025,0.392,1.416,0L49.416,16h5.575c0.135,0.001,0.269-0.025,0.395-0.078c0.068-0.028,0.121-0.078,0.181-0.12
			c0.047-0.033,0.1-0.052,0.142-0.094l8-8c0.05-0.05,0.075-0.112,0.112-0.169C63.854,7.487,63.898,7.443,63.922,7.386z M60.584,8
			l-2,2h-3.168l2-2H60.584z M54,8.584V5.416l2-2v3.168L54,8.584z M50,9.416l2-2v3.168l-2,2V9.416z M53.416,12h3.168l-2,2h-3.168
			L53.416,12z"/>
	</g>
</g>
</svg>
